<svg version="1" xmlns="http://www.w3.org/2000/svg" width="637.333" height="637.333" viewBox="0 0 478.000000 478.000000"><path d="M90.9 2C45.8 9.6 10.3 44.8 2.5 89.7.3 102.5.3 375.4 2.5 388.2c8.2 47.2 46 82.8 94 88.7 12.3 1.5 271.7 1.5 285.2 0 50-5.5 88.9-43.9 95.3-93.9.8-5.9 1-51.8.7-149.5-.3-154.2.1-143.3-6.1-161.3-12.1-35.2-42.3-61.4-80.1-69.3C382.9 1.1 376 1 239 1.1c-78.9.1-145.6.5-148.1.9zm117.8 117.9c9.8 2.4 20.8 7.8 26.2 12.7l3.9 3.5 7-5.1c7.7-5.6 15.8-9.2 26.5-11.7 10.9-2.6 44.9-2.3 66.7.6 21.1 2.8 38.1 6.3 41.4 8.5 1.5.9 3.6 3.1 4.6 4.9 1.9 3.1 2 5.9 2 104.8v101.6l-2.2 3.3c-1.3 1.8-3.9 4.2-5.8 5.2-4.2 2.3-6.7 2.1-27-1.5-19.8-3.5-33.4-4.7-52.4-4.7-24.8 0-33.2 2.8-46.2 15-7.7 7.4-10.2 8.6-16.5 7.7-3.2-.4-5.4-1.9-11.4-7.6-13.1-12.4-21.2-15.1-46.1-15.1-18.8 0-32.5 1.2-52.4 4.7-22.1 3.8-23.9 3.9-27.9 1.1-1.9-1.3-4.4-3.9-5.5-5.8-2.1-3.5-2.1-4.4-2.1-104.7 0-100.6 0-101.2 2.1-103.9 4.7-6.4 9.4-7.9 39.1-12.4 20.3-3.1 32.6-3.9 51.3-3.5 12.2.3 18.6.9 24.7 2.4z"/><path d="M151 139.6c-10.5 1.3-31 4.8-35.2 6-1.7.5-1.8 5.7-1.8 91.1v90.6l3.8-.7c23.6-4 41.2-5.6 62-5.6 22.1 0 35.2 2.9 45.2 10l3 2.1v-86.3c0-81.4-.1-86.5-1.9-90.3-3.8-8.5-12.6-14.1-26.3-16.9-9.5-2-32.4-2-48.8 0zM278.2 139.5c-12.8 2.9-21.5 8.4-25.1 15.8-2.1 4.3-2.1 5.3-2.1 91.1v86.7l2.9-2.1c5.2-3.7 13.7-7 21.6-8.5 14.8-2.9 48.6-1.7 75.3 2.5 6.7 1.1 12.7 2 13.2 2 .7 0 1-32.1 1-90.4 0-85.3-.1-90.5-1.7-91-20.4-5.8-70.6-9.4-85.1-6.1z"/></svg>